PathFileType	4	(X/Y/Z)	C:\Users\alexw\Dropbox\ABI\Level_8_Lab\OpenSim Tools\ProcessingTrialDataFromVicon\Output\AB08\_12Mar_ss_12ms_01\_12Mar_ss_12ms_01.trc
DataRate	CameraRate	NumFrames	NumMarkers	Units	OrigDataRate	OrigDataStartFrame	OrigNumFrames
200.000000	200.000000	4	42	mm	200.000000	4199	6093
Frame#	Time	LASI			RASI			LPSI			RPSI			LTH1			LTH2			LTH3			LTH4			LMFC			LLFC			LTB1			LTB2			LTB3			LTB4			LMMAL			LLMAL			LCAL			LToe			LMT1			LMT5			RTH1			RTH2			RTH3			RTH4			RMFC			RLFC			RTB1			RTB2			RTB3			RTB4			RMMAL			RLMAL			RCAL			RToe			RMT1			RMT5			C7			T10			LACR1			RACR1			CLAV			RBack			
		X1	Y1	Z1	X2	Y2	Z2	X3	Y3	Z3	X4	Y4	Z4	X5	Y5	Z5	X6	Y6	Z6	X7	Y7	Z7	X8	Y8	Z8	X9	Y9	Z9	X10	Y10	Z10	X11	Y11	Z11	X12	Y12	Z12	X13	Y13	Z13	X14	Y14	Z14	X15	Y15	Z15	X16	Y16	Z16	X17	Y17	Z17	X18	Y18	Z18	X19	Y19	Z19	X20	Y20	Z20	X21	Y21	Z21	X22	Y22	Z22	X23	Y23	Z23	X24	Y24	Z24	X25	Y25	Z25	X26	Y26	Z26	X27	Y27	Z27	X28	Y28	Z28	X29	Y29	Z29	X30	Y30	Z30	X31	Y31	Z31	X32	Y32	Z32	X33	Y33	Z33	X34	Y34	Z34	X35	Y35	Z35	X36	Y36	Z36	X37	Y37	Z37	X38	Y38	Z38	X39	Y39	Z39	X40	Y40	Z40	X41	Y41	Z41	X42	Y42	Z42	

4199	20.985	393.15759	953.54053	-956.83618	644.35992	973.13562	-979.21082	483.14200	975.37042	-741.04358	607.34662	979.97668	-748.89594	342.83383	676.18536	-996.93719	329.61789	642.25342	-979.63208	369.48059	590.34021	-988.73529	357.36859	629.58551	-994.54724	435.92676	487.14090	-926.85175	310.58658	503.78424	-892.92725	287.68805	439.65326	-813.01624	297.66122	396.21725	-741.24939	318.80185	355.78470	-771.89154	307.26709	385.13940	-798.45508	428.90457	253.55664	-582.50256	340.26974	266.53568	-568.37439	385.27298	317.39841	-488.96176	420.97443	32.07589	-578.18524	443.10638	116.17082	-545.60938	325.78632	122.83659	-533.97021	645.08508	719.32019	-1056.55160	628.98053	654.56329	-1060.10930	671.49786	621.43481	-1028.74820	682.68445	678.69818	-1029.75200	535.06976	517.96973	-1026.60990	663.35651	517.13519	-1000.23800	661.57074	398.54126	-1018.46300	646.63739	363.52402	-1030.38890	631.72815	315.16129	-1035.25700	661.79205	314.09665	-990.18115	532.61951	123.73953	-992.14600	615.84601	107.43585	-953.29150	557.59760	58.95612	-887.31006	583.77899	40.21864	-1190.33530	541.47205	40.44980	-1101.32540	661.17505	44.24151	-1067.81090	496.01215	1484.06240	-803.05920	507.09528	1229.09660	-737.72479	330.00555	1442.68210	-872.15363	657.96124	1458.00500	-859.14960	502.52802	1412.18820	-954.61414	625.13116	1381.77500	-747.95892
4200	20.99	393.18179	955.06281	-956.32953	645.02191	974.00684	-978.77863	484.08456	976.71069	-740.44861	608.00153	981.66302	-748.34729	343.31934	679.23907	-999.79309	330.06516	645.25470	-983.20911	369.80673	593.38263	-992.91339	357.77008	632.53729	-998.11267	435.86542	489.56485	-931.66888	310.03748	505.85825	-899.03601	287.52966	441.89005	-819.48193	297.29950	398.34381	-747.70184	318.36108	357.99661	-778.24023	306.78223	387.27448	-804.94043	428.40939	256.43961	-589.10864	340.51956	269.25870	-574.10181	384.94040	318.51172	-493.99713	421.36667	34.52248	-588.50378	443.14520	118.36608	-554.26251	325.50116	124.59113	-541.99683	645.06073	719.18494	-1053.88270	629.19421	654.45947	-1056.99780	671.80334	621.54865	-1025.62990	683.04840	678.60339	-1026.96250	535.41949	517.82025	-1022.76350	663.74042	517.28522	-996.23590	661.67780	398.56381	-1014.12800	646.61432	363.47095	-1025.83560	631.59802	315.09103	-1030.29170	662.16107	314.13858	-985.50287	533.06049	123.97840	-986.11896	616.22107	107.46033	-947.19159	557.84668	58.99023	-881.09216	583.70673	40.01520	-1183.93330	541.62732	40.58124	-1095.15710	661.36987	44.27683	-1061.64510	496.52432	1485.45850	-802.60339	508.02405	1230.54680	-737.31586	330.33389	1443.76720	-871.11542	658.31885	1459.58130	-859.10760	502.76608	1413.62210	-954.23309	626.12775	1383.20200	-747.95416
4201	20.995	393.21432	956.69562	-955.98450	645.79211	974.81982	-978.17432	484.91943	978.08508	-739.95593	608.63934	983.29395	-747.83502	344.03857	682.36200	-1003.26740	330.26425	648.18018	-986.71082	370.05386	596.28931	-996.90216	358.10742	635.58563	-1001.51260	435.65424	491.93585	-936.60876	309.38574	507.94901	-904.78601	287.15067	444.22342	-825.84656	296.89600	400.56348	-753.83087	317.81900	360.15765	-784.46057	306.33005	389.36142	-811.02020	428.26111	259.07645	-595.65979	340.05292	271.21024	-580.51294	384.70459	318.98660	-499.23535	422.41187	37.14859	-599.42676	443.35071	120.32446	-563.19513	325.70807	125.80377	-550.54120	645.03156	719.03595	-1051.18290	629.37579	654.15131	-1053.75620	672.13812	621.70673	-1022.38510	683.36353	678.84302	-1024.32040	535.86188	517.61792	-1019.05730	664.07764	517.43970	-992.06506	661.70251	398.61459	-1009.74300	646.50092	363.41754	-1021.15450	631.54065	315.05374	-1025.29980	662.59222	314.33966	-980.77826	533.41681	124.27977	-979.97473	616.57196	107.37493	-941.14642	557.79718	59.19309	-874.62695	583.82196	40.22111	-1177.98140	541.74042	40.72214	-1088.99300	661.51770	44.23698	-1055.55110	497.08618	1486.85170	-802.11511	508.98886	1231.95210	-736.93579	330.60016	1444.84880	-870.06427	658.76208	1461.22660	-859.16797	502.87497	1415.03650	-953.85822	626.98651	1384.59800	-747.88202
4202	21	393.32468	958.23877	-955.44012	646.57623	975.48926	-977.61523	485.70673	979.65106	-739.31525	609.15240	984.83887	-747.19415	344.50595	685.56238	-1006.00710	330.56033	651.11053	-990.10297	370.12302	599.27283	-1000.81620	358.35010	638.68909	-1004.90920	435.34509	494.27820	-941.78003	308.92966	510.19681	-910.43060	286.96603	446.28470	-831.90692	296.85150	402.85651	-759.92456	317.25934	362.16971	-790.60547	305.94238	391.62222	-817.16663	428.00851	261.09979	-602.40442	339.94165	272.67911	-586.99396	384.43805	318.94086	-504.57288	422.88123	39.26321	-609.85645	443.96735	121.66074	-573.07892	326.02444	126.48038	-559.39783	645.17053	718.80194	-1048.41050	629.56226	654.01990	-1050.46000	672.61737	621.80963	-1018.91950	683.73004	678.98846	-1021.39170	536.36963	517.34271	-1015.46250	664.38409	517.65692	-987.83246	661.83557	398.56076	-1005.31910	646.36810	363.39606	-1016.35800	631.35986	314.90735	-1020.27800	662.95142	314.38281	-975.92419	533.75104	124.52809	-973.95703	616.75781	107.30306	-935.27667	557.97919	59.13921	-868.58649	583.74353	40.10833	-1171.60560	542.38818	40.39959	-1082.51920	661.68091	44.22618	-1049.36450	497.63211	1488.21810	-801.63568	509.90027	1233.25340	-736.62396	330.92926	1445.88290	-868.86560	659.10345	1462.88830	-859.12665	502.92963	1416.38440	-953.45691	627.84344	1386.07370	-747.74219
